<?xml version="1.0" encoding="UTF-8"?>
<!DOCTYPE svg PUBLIC "-//W3C//DTD SVG 1.1//EN" "http://www.w3.org/Graphics/SVG/1.1/DTD/svg11.dtd">
<!-- Creator: CorelDRAW 2017 -->
<svg xmlns="http://www.w3.org/2000/svg" xml:space="preserve" width="98px" height="30px" version="1.1" style="shape-rendering:geometricPrecision; text-rendering:geometricPrecision; image-rendering:optimizeQuality; fill-rule:evenodd; clip-rule:evenodd"
viewBox="0 0 20.1 6.14"
 xmlns:xlink="http://www.w3.org/1999/xlink">
 <defs>
  <style type="text/css">
   <![CDATA[
    .fil0 {fill:#2B2A29}
    .fil1 {fill:#2B2A29;fill-rule:nonzero}
   ]]>
  </style>
 </defs>
 <g id="Слой_x0020_1">
  <metadata id="CorelCorpID_0Corel-Layer"/>
  <path class="fil0" d="M3.09 2.08c0.54,0 0.99,0.44 0.99,0.99 0,0.54 -0.45,0.98 -0.99,0.98 -0.54,0 -0.98,-0.44 -0.98,-0.98 0,-0.55 0.44,-0.99 0.98,-0.99zm0 0.48c0.28,0 0.51,0.23 0.51,0.51 0,0.28 -0.23,0.51 -0.51,0.51 -0.28,0 -0.51,-0.23 -0.51,-0.51 0,-0.28 0.23,-0.51 0.51,-0.51z"/>
  <path class="fil0" d="M3.09 1.04c0.99,0 1.82,0.72 1.99,1.65l-0.54 0c-0.16,-0.64 -0.75,-1.12 -1.45,-1.12 -0.7,0 -1.28,0.48 -1.45,1.12l-0.54 0c0.18,-0.93 1,-1.65 1.99,-1.65zm1.99 2.4c-0.17,0.94 -1,1.65 -1.99,1.65 -0.99,0 -1.81,-0.71 -1.99,-1.65l0.54 0c0.17,0.65 0.75,1.13 1.45,1.13 0.7,0 1.29,-0.48 1.45,-1.13l0.54 0z"/>
  <path class="fil0" d="M3.46 0c1.54,0.18 2.72,1.49 2.72,3.07 0,1.58 -1.18,2.88 -2.72,3.07l0 -0.53c1.25,-0.18 2.2,-1.25 2.2,-2.54 0,-1.29 -0.95,-2.36 -2.2,-2.55l0 -0.52zm-0.74 6.14c-1.53,-0.19 -2.72,-1.49 -2.72,-3.07 0,-1.58 1.19,-2.89 2.72,-3.07l0 0.52c-1.25,0.19 -2.2,1.26 -2.2,2.55 0,1.29 0.95,2.36 2.2,2.54l0 0.53z"/>
  <path class="fil1" d="M8.54 3.61l-0.8 0 -0.12 0.32 -0.73 0 0.87 -1.96 0.78 0 0.86 1.96 -0.74 0 -0.12 -0.32zm-0.15 -0.43l-0.25 -0.7 -0.25 0.7 0.5 0zm1.24 0.75l0 -1.96 1.19 0c0.22,0 0.39,0.02 0.5,0.05 0.12,0.03 0.21,0.09 0.28,0.18 0.07,0.08 0.11,0.19 0.11,0.32 0,0.11 -0.03,0.2 -0.08,0.28 -0.06,0.08 -0.13,0.14 -0.23,0.19 -0.06,0.03 -0.14,0.06 -0.25,0.08 0.09,0.02 0.15,0.05 0.19,0.07 0.02,0.02 0.06,0.05 0.11,0.1 0.05,0.06 0.08,0.1 0.1,0.13l0.35 0.56 -0.81 0 -0.38 -0.6c-0.04,-0.07 -0.09,-0.12 -0.13,-0.15 -0.05,-0.03 -0.1,-0.04 -0.17,-0.04l-0.06 0 0 0.79 -0.72 0zm0.72 -1.16l0.3 0c0.03,0 0.09,-0.01 0.19,-0.03 0.04,-0.01 0.08,-0.03 0.11,-0.06 0.03,-0.03 0.05,-0.07 0.05,-0.11 0,-0.07 -0.03,-0.12 -0.07,-0.15 -0.05,-0.04 -0.14,-0.05 -0.27,-0.05l-0.31 0 0 0.4zm1.77 -0.8l0.94 0 0.35 1.19 0.36 -1.19 0.93 0 0 1.96 -0.58 0 0 -1.49 -0.45 1.49 -0.52 0 -0.45 -1.49 0 1.49 -0.58 0 0 -1.96zm2.95 0.98c0,-0.32 0.1,-0.57 0.31,-0.74 0.21,-0.18 0.5,-0.27 0.87,-0.27 0.39,0 0.68,0.09 0.89,0.26 0.21,0.18 0.31,0.42 0.31,0.74 0,0.23 -0.04,0.41 -0.13,0.56 -0.1,0.15 -0.23,0.26 -0.4,0.34 -0.17,0.08 -0.38,0.13 -0.64,0.13 -0.26,0 -0.47,-0.04 -0.64,-0.11 -0.17,-0.07 -0.31,-0.18 -0.42,-0.33 -0.1,-0.16 -0.15,-0.35 -0.15,-0.58zm0.71 0c0,0.2 0.04,0.34 0.13,0.43 0.08,0.09 0.2,0.13 0.35,0.13 0.15,0 0.27,-0.04 0.35,-0.13 0.09,-0.08 0.13,-0.23 0.13,-0.45 0,-0.19 -0.04,-0.32 -0.13,-0.41 -0.09,-0.08 -0.21,-0.12 -0.36,-0.12 -0.14,0 -0.26,0.04 -0.34,0.13 -0.09,0.08 -0.13,0.22 -0.13,0.42zm2.06 0.98l0 -1.96 1.19 0c0.22,0 0.38,0.02 0.5,0.05 0.12,0.03 0.21,0.09 0.28,0.18 0.07,0.08 0.11,0.19 0.11,0.32 0,0.11 -0.03,0.2 -0.08,0.28 -0.06,0.08 -0.13,0.14 -0.23,0.19 -0.06,0.03 -0.14,0.06 -0.25,0.08 0.09,0.02 0.15,0.05 0.19,0.07 0.02,0.02 0.06,0.05 0.11,0.1 0.05,0.06 0.08,0.1 0.1,0.13l0.34 0.56 -0.8 0 -0.38 -0.6c-0.05,-0.07 -0.09,-0.12 -0.13,-0.15 -0.05,-0.03 -0.11,-0.04 -0.17,-0.04l-0.06 0 0 0.79 -0.72 0zm0.72 -1.16l0.3 0c0.03,0 0.09,-0.01 0.18,-0.03 0.05,-0.01 0.09,-0.03 0.12,-0.06 0.03,-0.03 0.04,-0.07 0.04,-0.11 0,-0.07 -0.02,-0.12 -0.07,-0.15 -0.04,-0.04 -0.13,-0.05 -0.26,-0.05l-0.31 0 0 0.4z"/>
 </g>
</svg>
