<?xml version="1.0" encoding="UTF-8"?>
<!DOCTYPE svg PUBLIC "-//W3C//DTD SVG 1.1//EN" "http://www.w3.org/Graphics/SVG/1.1/DTD/svg11.dtd">
<!-- Creator: CorelDRAW 2017 -->
<svg xmlns="http://www.w3.org/2000/svg" xml:space="preserve" width="21px" height="30px" version="1.1" style="shape-rendering:geometricPrecision; text-rendering:geometricPrecision; image-rendering:optimizeQuality; fill-rule:evenodd; clip-rule:evenodd"
viewBox="0 0 21 29.7"
 xmlns:xlink="http://www.w3.org/1999/xlink">
 <defs>
  <style type="text/css">
   <![CDATA[
    .fil0 {fill:#2B2A29}
    .fil1 {fill:#2B2A29;fill-rule:nonzero}
   ]]>
  </style>
 </defs>
 <g id="Слой_x0020_1">
  <metadata id="CorelCorpID_0Corel-Layer"/>
  <path class="fil0" d="M-2.82 12.76c0.16,0 0.28,0.13 0.28,0.29 0,0.16 -0.12,0.29 -0.28,0.29 -0.16,0 -0.29,-0.13 -0.29,-0.29 0,-0.16 0.13,-0.29 0.29,-0.29zm0 0.14c0.08,0 0.15,0.07 0.15,0.15 0,0.08 -0.07,0.15 -0.15,0.15 -0.08,0 -0.15,-0.07 -0.15,-0.15 0,-0.08 0.07,-0.15 0.15,-0.15z"/>
  <path class="fil0" d="M-2.82 12.46c0.29,0 0.52,0.21 0.58,0.48l-0.16 0c-0.05,-0.19 -0.22,-0.33 -0.42,-0.33 -0.2,0 -0.37,0.14 -0.42,0.33l-0.16 0c0.05,-0.27 0.29,-0.48 0.58,-0.48zm0.58 0.7c-0.06,0.27 -0.29,0.48 -0.58,0.48 -0.29,0 -0.53,-0.21 -0.58,-0.48l0.16 0c0.05,0.19 0.22,0.32 0.42,0.32 0.2,0 0.37,-0.13 0.42,-0.32l0.16 0z"/>
  <path class="fil0" d="M-2.71 12.16c0.44,0.05 0.78,0.43 0.78,0.89 0,0.46 -0.34,0.84 -0.78,0.89l0 -0.15c0.36,-0.05 0.63,-0.37 0.63,-0.74 0,-0.38 -0.27,-0.69 -0.63,-0.74l0 -0.15zm-0.22 1.78c-0.44,-0.05 -0.79,-0.43 -0.79,-0.89 0,-0.46 0.35,-0.84 0.79,-0.89l0 0.15c-0.36,0.05 -0.64,0.36 -0.64,0.74 0,0.37 0.28,0.69 0.64,0.74l0 0.15z"/>
  <path class="fil1" d="M-1.24 13.21l-0.23 0 -0.04 0.09 -0.21 0 0.25 -0.57 0.23 0 0.25 0.57 -0.22 0 -0.03 -0.09zm-0.04 -0.13l-0.08 -0.2 -0.07 0.2 0.15 0zm0.36 0.22l0 -0.57 0.34 0c0.06,0 0.11,0.01 0.15,0.02 0.03,0 0.06,0.02 0.08,0.05 0.02,0.02 0.03,0.05 0.03,0.09 0,0.03 -0.01,0.06 -0.02,0.08 -0.02,0.02 -0.04,0.04 -0.07,0.06 -0.02,0.01 -0.04,0.01 -0.07,0.02 0.02,0.01 0.04,0.01 0.05,0.02 0.01,0.01 0.02,0.02 0.03,0.03 0.02,0.02 0.03,0.03 0.03,0.04l0.1 0.16 -0.23 0 -0.11 -0.17c-0.01,-0.03 -0.03,-0.04 -0.04,-0.05 -0.01,-0.01 -0.03,-0.01 -0.05,-0.01l-0.02 0 0 0.23 -0.2 0zm0.2 -0.34l0.09 0c0.01,0 0.03,0 0.06,-0.01 0.01,0 0.02,0 0.03,-0.01 0.01,-0.01 0.01,-0.02 0.01,-0.04 0,-0.01 0,-0.03 -0.02,-0.04 -0.01,-0.01 -0.04,-0.01 -0.08,-0.01l-0.09 0 0 0.11zm0.52 -0.23l0.27 0 0.1 0.35 0.11 -0.35 0.27 0 0 0.57 -0.17 0 0 -0.43 -0.13 0.43 -0.15 0 -0.13 -0.43 0 0.43 -0.17 0 0 -0.57zm0.85 0.29c0,-0.1 0.03,-0.17 0.09,-0.22 0.06,-0.05 0.15,-0.08 0.26,-0.08 0.11,0 0.19,0.03 0.25,0.08 0.06,0.05 0.09,0.12 0.09,0.21 0,0.07 -0.01,0.12 -0.03,0.16 -0.03,0.05 -0.07,0.08 -0.12,0.1 -0.05,0.03 -0.11,0.04 -0.18,0.04 -0.08,0 -0.14,-0.01 -0.19,-0.03 -0.05,-0.02 -0.09,-0.05 -0.12,-0.1 -0.03,-0.04 -0.05,-0.1 -0.05,-0.16zm0.21 0c0,0.05 0.01,0.1 0.04,0.12 0.02,0.03 0.06,0.04 0.1,0.04 0.04,0 0.08,-0.01 0.1,-0.04 0.03,-0.02 0.04,-0.07 0.04,-0.13 0,-0.05 -0.01,-0.09 -0.04,-0.12 -0.02,-0.02 -0.06,-0.04 -0.1,-0.04 -0.04,0 -0.08,0.02 -0.1,0.04 -0.03,0.03 -0.04,0.07 -0.04,0.13zm0.6 0.28l0 -0.57 0.34 0c0.07,0 0.11,0.01 0.15,0.02 0.03,0 0.06,0.02 0.08,0.05 0.02,0.02 0.03,0.05 0.03,0.09 0,0.03 -0.01,0.06 -0.02,0.08 -0.02,0.02 -0.04,0.04 -0.07,0.06 -0.02,0.01 -0.04,0.01 -0.07,0.02 0.02,0.01 0.04,0.01 0.05,0.02 0.01,0.01 0.02,0.02 0.04,0.03 0.01,0.02 0.02,0.03 0.02,0.04l0.1 0.16 -0.23 0 -0.11 -0.17c-0.01,-0.03 -0.02,-0.04 -0.04,-0.05 -0.01,-0.01 -0.03,-0.01 -0.05,-0.01l-0.01 0 0 0.23 -0.21 0zm0.21 -0.34l0.08 0c0.01,0 0.03,0 0.06,-0.01 0.01,0 0.02,0 0.03,-0.01 0.01,-0.01 0.01,-0.02 0.01,-0.04 0,-0.01 0,-0.03 -0.02,-0.04 -0.01,-0.01 -0.04,-0.01 -0.07,-0.01l-0.09 0 0 0.11z"/>
 </g>
</svg>
