<!-- Generated by IcoMoon.io -->
<svg version="1.1" xmlns="http://www.w3.org/2000/svg" width="640" height="640" viewBox="0 0 640 640">
<title></title>
<g id="icomoon-ignore">
</g>
<path fill="#000" d="M608 352c-4.533 80.104-47.704 149.232-111.026 189.501l-0.974 0.579-176 97.92-176-97.92c-64.296-40.847-107.467-109.976-111.971-189.447l-0.029-0.633v-256c108.16 0 208-35.84 288-96 80 60.48 179.84 96 288 96v256zM320 386.56l93.44 65.28-32.96-109.12 90.88-68.8-113.92-2.56-37.44-107.52-37.44 107.52-113.92 2.56 90.56 68.48-32.96 108.8 93.76-64.32z"></path>
</svg>
